<svg width="270" height="270" viewBox="0 0 270 270" fill="none" xmlns="http://www.w3.org/2000/svg">
<path d="M0 32C0 14.3269 14.3269 0 32 0H238C255.673 0 270 14.3269 270 32V238C270 255.673 255.673 270 238 270H32C14.3269 270 0 255.673 0 238V32Z" fill="black"/>
<mask id="path-2-outside-1_2002_5" maskUnits="userSpaceOnUse" x="95" y="84" width="96" height="104" fill="black">
<rect fill="white" x="95" y="84" width="96" height="104"/>
<path d="M96.3852 186V85.6364H160.681V100.877H114.566V128.124H156.27V143.365H114.566V186H96.3852ZM178.532 187.078C175.559 187.078 173.011 186.033 170.887 183.942C168.763 181.851 167.718 179.303 167.751 176.297C167.718 173.357 168.763 170.841 170.887 168.75C173.011 166.659 175.559 165.614 178.532 165.614C181.407 165.614 183.906 166.659 186.03 168.75C188.186 170.841 189.28 173.357 189.313 176.297C189.28 178.29 188.758 180.103 187.745 181.737C186.765 183.37 185.458 184.677 183.825 185.657C182.224 186.604 180.459 187.078 178.532 187.078Z"/>
</mask>
<path d="M96.3852 186V85.6364H160.681V100.877H114.566V128.124H156.27V143.365H114.566V186H96.3852ZM178.532 187.078C175.559 187.078 173.011 186.033 170.887 183.942C168.763 181.851 167.718 179.303 167.751 176.297C167.718 173.357 168.763 170.841 170.887 168.75C173.011 166.659 175.559 165.614 178.532 165.614C181.407 165.614 183.906 166.659 186.03 168.75C188.186 170.841 189.28 173.357 189.313 176.297C189.28 178.29 188.758 180.103 187.745 181.737C186.765 183.37 185.458 184.677 183.825 185.657C182.224 186.604 180.459 187.078 178.532 187.078Z" fill="url(#paint0_linear_2002_5)"/>
<path d="M96.3852 186H95.5852V186.8H96.3852V186ZM96.3852 85.6364V84.8364H95.5852V85.6364H96.3852ZM160.681 85.6364H161.481V84.8364H160.681V85.6364ZM160.681 100.877V101.677H161.481V100.877H160.681ZM114.566 100.877V100.077H113.766V100.877H114.566ZM114.566 128.124H113.766V128.924H114.566V128.124ZM156.27 128.124H157.07V127.324H156.27V128.124ZM156.27 143.365V144.165H157.07V143.365H156.27ZM114.566 143.365V142.565H113.766V143.365H114.566ZM114.566 186V186.8H115.366V186H114.566ZM97.1852 186V85.6364H95.5852V186H97.1852ZM96.3852 86.4364H160.681V84.8364H96.3852V86.4364ZM159.881 85.6364V100.877H161.481V85.6364H159.881ZM160.681 100.077H114.566V101.677H160.681V100.077ZM113.766 100.877V128.124H115.366V100.877H113.766ZM114.566 128.924H156.27V127.324H114.566V128.924ZM155.47 128.124V143.365H157.07V128.124H155.47ZM156.27 142.565H114.566V144.165H156.27V142.565ZM113.766 143.365V186H115.366V143.365H113.766ZM114.566 185.2H96.3852V186.8H114.566V185.2ZM170.887 183.942L170.326 184.512L170.326 184.512L170.887 183.942ZM167.751 176.297L168.551 176.306L168.551 176.297L168.551 176.288L167.751 176.297ZM170.887 168.75L171.448 169.32L171.448 169.32L170.887 168.75ZM186.03 168.75L185.468 169.32L185.473 169.324L186.03 168.75ZM189.313 176.297L190.113 176.31L190.113 176.299L190.113 176.288L189.313 176.297ZM187.745 181.737L187.065 181.315L187.059 181.325L187.745 181.737ZM183.825 185.657L184.232 186.345L184.236 186.343L183.825 185.657ZM178.532 186.278C175.77 186.278 173.423 185.316 171.448 183.372L170.326 184.512C172.599 186.75 175.348 187.878 178.532 187.878V186.278ZM171.448 183.372C169.481 181.435 168.52 179.096 168.551 176.306L166.951 176.288C166.916 179.509 168.046 182.267 170.326 184.512L171.448 183.372ZM168.551 176.288C168.52 173.568 169.477 171.261 171.448 169.32L170.326 168.18C168.05 170.421 166.916 173.145 166.951 176.306L168.551 176.288ZM171.448 169.32C173.423 167.376 175.77 166.414 178.532 166.414V164.814C175.348 164.814 172.599 165.942 170.326 168.18L171.448 169.32ZM178.532 166.414C181.188 166.414 183.488 167.37 185.469 169.32L186.591 168.18C184.324 165.948 181.625 164.814 178.532 164.814V166.414ZM185.473 169.324C187.48 171.27 188.483 173.584 188.513 176.306L190.113 176.288C190.078 173.129 188.892 170.412 186.587 168.176L185.473 169.324ZM188.513 176.284C188.483 178.138 187.999 179.809 187.065 181.315L188.425 182.158C189.517 180.397 190.078 178.442 190.113 176.31L188.513 176.284ZM187.059 181.325C186.146 182.846 184.934 184.058 183.413 184.971L184.236 186.343C185.982 185.295 187.383 183.894 188.431 182.148L187.059 181.325ZM183.417 184.968C181.944 185.84 180.322 186.278 178.532 186.278V187.878C180.597 187.878 182.503 187.369 184.232 186.345L183.417 184.968Z" fill="white" mask="url(#path-2-outside-1_2002_5)"/>
<defs>
<linearGradient id="paint0_linear_2002_5" x1="142.5" y1="52" x2="142.5" y2="219" gradientUnits="userSpaceOnUse">
<stop stop-color="white"/>
<stop offset="1" stop-color="#737373"/>
</linearGradient>
</defs>
</svg>
