<svg width="128" height="128" viewBox="0 0 128 128" fill="none" xmlns="http://www.w3.org/2000/svg">
<rect x="0.75" y="0.75" width="126.5" height="126.5" rx="12.25" fill="black"/>
<rect x="0.75" y="0.75" width="126.5" height="126.5" rx="12.25" stroke="#3C3C3C" stroke-width="1.5"/>
<mask id="path-2-outside-1_261_550" maskUnits="userSpaceOnUse" x="46" y="40" width="46" height="50" fill="black">
<rect fill="white" x="46" y="40" width="46" height="50"/>
<path d="M47.6134 88V41.4545H77.4316V48.5227H56.0452V61.1591H75.3861V68.2273H56.0452V88H47.6134ZM85.7105 88.5C84.3317 88.5 83.1498 88.0152 82.165 87.0455C81.1802 86.0758 80.6953 84.8939 80.7105 83.5C80.6953 82.1364 81.1802 80.9697 82.165 80C83.1498 79.0303 84.3317 78.5455 85.7105 78.5455C87.0438 78.5455 88.2029 79.0303 89.1877 80C90.1877 80.9697 90.6953 82.1364 90.7105 83.5C90.6953 84.4242 90.4529 85.2652 89.9832 86.0227C89.5286 86.7803 88.9226 87.3864 88.165 87.8409C87.4226 88.2803 86.6044 88.5 85.7105 88.5Z"/>
</mask>
<path d="M47.6134 88V41.4545H77.4316V48.5227H56.0452V61.1591H75.3861V68.2273H56.0452V88H47.6134ZM85.7105 88.5C84.3317 88.5 83.1498 88.0152 82.165 87.0455C81.1802 86.0758 80.6953 84.8939 80.7105 83.5C80.6953 82.1364 81.1802 80.9697 82.165 80C83.1498 79.0303 84.3317 78.5455 85.7105 78.5455C87.0438 78.5455 88.2029 79.0303 89.1877 80C90.1877 80.9697 90.6953 82.1364 90.7105 83.5C90.6953 84.4242 90.4529 85.2652 89.9832 86.0227C89.5286 86.7803 88.9226 87.3864 88.165 87.8409C87.4226 88.2803 86.6044 88.5 85.7105 88.5Z" fill="url(#paint0_linear_261_550)"/>
<path d="M47.6134 88H46.8134V88.8H47.6134V88ZM47.6134 41.4545V40.6545H46.8134V41.4545H47.6134ZM77.4316 41.4545H78.2316V40.6545H77.4316V41.4545ZM77.4316 48.5227V49.3227H78.2316V48.5227H77.4316ZM56.0452 48.5227V47.7227H55.2452V48.5227H56.0452ZM56.0452 61.1591H55.2452V61.9591H56.0452V61.1591ZM75.3861 61.1591H76.1861V60.3591H75.3861V61.1591ZM75.3861 68.2273V69.0273H76.1861V68.2273H75.3861ZM56.0452 68.2273V67.4273H55.2452V68.2273H56.0452ZM56.0452 88V88.8H56.8452V88H56.0452ZM48.4134 88V41.4545H46.8134V88H48.4134ZM47.6134 42.2545H77.4316V40.6545H47.6134V42.2545ZM76.6316 41.4545V48.5227H78.2316V41.4545H76.6316ZM77.4316 47.7227H56.0452V49.3227H77.4316V47.7227ZM55.2452 48.5227V61.1591H56.8452V48.5227H55.2452ZM56.0452 61.9591H75.3861V60.3591H56.0452V61.9591ZM74.5861 61.1591V68.2273H76.1861V61.1591H74.5861ZM75.3861 67.4273H56.0452V69.0273H75.3861V67.4273ZM55.2452 68.2273V88H56.8452V68.2273H55.2452ZM56.0452 87.2H47.6134V88.8H56.0452V87.2ZM82.165 87.0455L81.6037 87.6155L82.165 87.0455ZM80.7105 83.5L81.5104 83.5087L81.5105 83.4999L81.5104 83.4911L80.7105 83.5ZM82.165 80L82.7263 80.5701L82.165 80ZM89.1877 80L88.6264 80.5701L88.6308 80.5743L89.1877 80ZM90.7105 83.5L91.5103 83.5131L91.5105 83.5021L91.5104 83.4911L90.7105 83.5ZM89.9832 86.0227L89.3032 85.6011L89.2972 85.6111L89.9832 86.0227ZM88.165 87.8409L88.5725 88.5294L88.5766 88.5269L88.165 87.8409ZM85.7105 87.7C84.5423 87.7 83.5619 87.2981 82.7263 86.4754L81.6037 87.6155C82.7378 88.7322 84.1211 89.3 85.7105 89.3V87.7ZM82.7263 86.4754C81.8978 85.6597 81.4976 84.6874 81.5104 83.5087L79.9105 83.4913C79.893 85.1005 80.4625 86.4918 81.6037 87.6155L82.7263 86.4754ZM81.5104 83.4911C81.4977 82.3482 81.894 81.3895 82.7263 80.5701L81.6037 79.4299C80.4663 80.5499 79.8929 81.9246 79.9105 83.5089L81.5104 83.4911ZM82.7263 80.5701C83.5619 79.7473 84.5423 79.3455 85.7105 79.3455V77.7455C84.1211 77.7455 82.7378 78.3133 81.6037 79.4299L82.7263 80.5701ZM85.7105 79.3455C86.8254 79.3455 87.7852 79.7417 88.6264 80.5701L89.749 79.4299C88.6206 78.3189 87.2622 77.7455 85.7105 77.7455V79.3455ZM88.6308 80.5743C89.4813 81.3991 89.8978 82.3637 89.9105 83.5089L91.5104 83.4911C91.4928 81.909 90.8941 80.5403 89.7446 79.4257L88.6308 80.5743ZM89.9106 83.4869C89.8977 84.2722 89.6939 84.9711 89.3033 85.6012L90.6631 86.4443C91.2118 85.5592 91.4929 84.5762 91.5103 83.5131L89.9106 83.4869ZM89.2972 85.6111C88.9102 86.2561 88.3984 86.7679 87.7534 87.1549L88.5766 88.5269C89.4468 88.0048 90.1471 87.3045 90.6692 86.4343L89.2972 85.6111ZM87.7575 87.1524C87.1431 87.5161 86.4665 87.7 85.7105 87.7V89.3C86.7423 89.3 87.7021 89.0445 88.5725 88.5294L87.7575 87.1524Z" fill="white" mask="url(#path-2-outside-1_261_550)"/>
<defs>
<linearGradient id="paint0_linear_261_550" x1="69" y1="26" x2="69" y2="103" gradientUnits="userSpaceOnUse">
<stop stop-color="white"/>
<stop offset="1" stop-color="#737373"/>
</linearGradient>
</defs>
</svg>
